<?xml version="1.0" encoding="utf-8"?>
<!-- Generator: Adobe Illustrator 19.1.0, SVG Export Plug-In . SVG Version: 6.00 Build 0)  -->
<svg version="1.1" id="Layer_2" xmlns="http://www.w3.org/2000/svg" xmlns:xlink="http://www.w3.org/1999/xlink" x="0px" y="0px"
	 viewBox="0 0 480 472" enable-background="new 0 0 480 472" xml:space="preserve">
<rect x="26" y="439" width="428" height="33"/>
<rect x="5" y="5" fill="#FFFFFF" stroke="#000000" stroke-width="10" stroke-miterlimit="10" width="470" height="430"/>
<line fill="none" stroke="#000000" stroke-width="8" stroke-miterlimit="10" x1="18" y1="24" x2="463" y2="24"/>
<line fill="none" stroke="#000000" stroke-width="8" stroke-miterlimit="10" x1="18" y1="416" x2="463" y2="416"/>
<g>
	<path d="M32,200.1c0.9,1.7,2,3,3.5,4.1c1.4,1,3.1,1.8,5,2.3c1.9,0.5,3.9,0.8,6,0.8c1.4,0,2.9-0.1,4.5-0.4c1.6-0.2,3.1-0.7,4.5-1.4
		c1.4-0.7,2.6-1.6,3.5-2.8c0.9-1.2,1.4-2.6,1.4-4.4c0-1.9-0.6-3.5-1.8-4.7c-1.2-1.2-2.9-2.2-4.9-3c-2-0.8-4.3-1.5-6.8-2.1
		c-2.5-0.6-5.1-1.3-7.7-2c-2.7-0.7-5.3-1.5-7.8-2.4c-2.5-1-4.8-2.2-6.8-3.8c-2-1.5-3.6-3.5-4.9-5.8c-1.2-2.3-1.9-5.1-1.9-8.4
		c0-3.7,0.8-6.9,2.4-9.5c1.6-2.7,3.6-5,6.1-6.8c2.5-1.8,5.4-3.1,8.6-4c3.2-0.9,6.4-1.3,9.6-1.3c3.7,0,7.3,0.4,10.8,1.2
		c3.4,0.8,6.5,2.2,9.1,4.1c2.7,1.9,4.8,4.2,6.4,7.1c1.6,2.9,2.4,6.4,2.4,10.5H58c-0.1-2.1-0.6-3.9-1.4-5.3c-0.8-1.4-1.8-2.5-3-3.3
		c-1.3-0.8-2.7-1.4-4.4-1.7c-1.6-0.3-3.4-0.5-5.4-0.5c-1.3,0-2.5,0.1-3.8,0.4c-1.3,0.3-2.4,0.7-3.5,1.4c-1,0.7-1.9,1.5-2.5,2.5
		c-0.7,1-1,2.3-1,3.8c0,1.4,0.3,2.5,0.8,3.4c0.5,0.9,1.6,1.7,3.2,2.4c1.6,0.7,3.7,1.5,6.5,2.2c2.8,0.7,6.4,1.7,10.8,2.8
		c1.3,0.3,3.2,0.8,5.6,1.5c2.4,0.7,4.7,1.8,7,3.3c2.3,1.5,4.4,3.6,6.1,6.2c1.7,2.6,2.5,5.8,2.5,9.8c0,3.3-0.6,6.3-1.9,9.1
		c-1.3,2.8-3.1,5.2-5.6,7.2c-2.5,2-5.6,3.6-9.3,4.8c-3.7,1.1-8,1.7-12.9,1.7c-3.9,0-7.8-0.5-11.4-1.5c-3.7-1-7-2.5-9.8-4.5
		c-2.8-2.1-5.1-4.7-6.8-7.9c-1.7-3.2-2.5-7-2.4-11.4h15.2C30.7,196.5,31.1,198.5,32,200.1z"/>
	<path d="M93.7,146.4v26.9H94c1.8-3,4.1-5.2,6.9-6.5c2.8-1.4,5.5-2.1,8.2-2.1c3.8,0,6.9,0.5,9.4,1.6c2.4,1,4.4,2.5,5.8,4.3
		c1.4,1.8,2.4,4.1,2.9,6.7c0.6,2.6,0.9,5.5,0.9,8.8v31.8h-14.2v-29.2c0-4.3-0.7-7.4-2-9.5c-1.3-2.1-3.7-3.1-7.1-3.1
		c-3.9,0-6.7,1.1-8.4,3.4c-1.7,2.3-2.6,6.1-2.6,11.4v27.1H79.5v-71.4H93.7z"/>
	<path d="M135.2,180.7c1.3-3.4,3.1-6.2,5.4-8.6c2.3-2.4,5.1-4.2,8.4-5.5c3.3-1.3,6.9-2,11-2c4.1,0,7.8,0.6,11,2
		c3.3,1.3,6.1,3.1,8.5,5.5c2.3,2.4,4.1,5.2,5.4,8.6c1.3,3.4,1.9,7.1,1.9,11.2c0,4.1-0.6,7.9-1.9,11.2c-1.3,3.3-3.1,6.2-5.4,8.6
		c-2.3,2.4-5.1,4.2-8.5,5.4c-3.3,1.3-7,1.9-11,1.9c-4.1,0-7.7-0.6-11-1.9c-3.3-1.3-6.1-3.1-8.4-5.4c-2.3-2.4-4.1-5.2-5.4-8.6
		c-1.3-3.3-1.9-7.1-1.9-11.2C133.3,187.8,133.9,184.1,135.2,180.7z M148.1,198c0.4,2,1.1,3.7,2,5.3c1,1.6,2.2,2.8,3.9,3.8
		c1.6,0.9,3.6,1.4,6,1.4s4.4-0.5,6-1.4c1.6-0.9,2.9-2.2,3.9-3.8c1-1.6,1.6-3.3,2-5.3c0.4-2,0.6-4,0.6-6c0-2.1-0.2-4.1-0.6-6.1
		s-1.1-3.8-2-5.3c-1-1.5-2.3-2.8-3.9-3.8c-1.6-1-3.6-1.4-6-1.4s-4.4,0.5-6,1.4c-1.6,1-2.9,2.2-3.9,3.8c-1,1.5-1.6,3.3-2,5.3
		s-0.6,4-0.6,6.1C147.5,194,147.7,196,148.1,198z"/>
	<path d="M216.3,164.5h14.1l8.1,38.3l8.3-38.3h14.5l-15.4,53.2h-14.3l-8.3-38.8l-8.4,38.8h-14.5l-14.9-53.2h14.9l8.3,38.2
		L216.3,164.5z"/>
	<path d="M284.7,175.4c-2.3,0-4.2,0.5-5.7,1.5c-1.5,1-2.8,2.4-3.8,4c-1,1.6-1.7,3.4-2.1,5.4c-0.4,2-0.6,3.9-0.6,5.9
		c0,1.9,0.2,3.8,0.6,5.7c0.4,1.9,1.1,3.7,2,5.2c0.9,1.6,2.1,2.9,3.7,3.9c1.5,1,3.4,1.5,5.6,1.5c3.4,0,6-1,7.9-2.9
		c1.8-1.9,3-4.5,3.4-7.6h13.7c-0.9,6.9-3.6,12.1-8,15.7c-4.4,3.6-10,5.4-16.9,5.4c-3.9,0-7.4-0.6-10.7-1.9c-3.2-1.3-6-3.1-8.2-5.5
		c-2.3-2.3-4-5.1-5.3-8.4c-1.3-3.2-1.9-6.8-1.9-10.6c0-4,0.6-7.7,1.8-11.1c1.2-3.4,2.9-6.4,5.2-8.9c2.3-2.5,5-4.5,8.3-5.9
		c3.3-1.4,7-2.1,11.2-2.1c3.1,0,6,0.4,8.8,1.2c2.8,0.8,5.4,2,7.6,3.6c2.2,1.6,4,3.7,5.4,6.1c1.4,2.4,2.2,5.3,2.4,8.6h-13.9
		C294.2,178.3,290.7,175.4,284.7,175.4z"/>
	<path d="M310.9,182c0.2-3.3,1-6.1,2.5-8.3c1.5-2.2,3.3-4,5.6-5.3c2.3-1.3,4.8-2.3,7.7-2.9c2.8-0.6,5.7-0.9,8.6-0.9
		c2.6,0,5.2,0.2,7.9,0.6c2.7,0.4,5.1,1.1,7.3,2.1c2.2,1.1,4,2.5,5.4,4.4c1.4,1.9,2.1,4.4,2.1,7.6v26.9c0,2.3,0.1,4.6,0.4,6.7
		c0.3,2.1,0.7,3.7,1.4,4.8h-14.4c-0.3-0.8-0.5-1.6-0.7-2.5c-0.2-0.8-0.3-1.7-0.3-2.5c-2.3,2.3-4.9,4-8,4.9c-3.1,0.9-6.2,1.4-9.4,1.4
		c-2.5,0-4.8-0.3-6.9-0.9c-2.1-0.6-4-1.5-5.6-2.8c-1.6-1.3-2.8-2.9-3.8-4.8c-0.9-1.9-1.3-4.2-1.3-6.9c0-2.9,0.5-5.4,1.5-7.2
		c1-1.9,2.4-3.4,4-4.5c1.6-1.1,3.5-2,5.6-2.6c2.1-0.6,4.2-1,6.3-1.3c2.1-0.3,4.2-0.6,6.3-0.8c2.1-0.2,3.9-0.5,5.5-0.9s2.9-1,3.8-1.8
		c0.9-0.8,1.4-1.9,1.3-3.4c0-1.5-0.2-2.8-0.8-3.6s-1.2-1.6-2-2.1c-0.8-0.5-1.8-0.8-2.9-1c-1.1-0.2-2.3-0.2-3.6-0.2
		c-2.8,0-5,0.6-6.6,1.8c-1.6,1.2-2.5,3.2-2.8,6H310.9z M343.7,192.5c-0.6,0.5-1.4,0.9-2.2,1.2c-0.9,0.3-1.9,0.5-2.9,0.8
		c-1,0.2-2.1,0.4-3.2,0.5c-1.1,0.1-2.3,0.3-3.4,0.5c-1.1,0.2-2.1,0.5-3.2,0.8c-1,0.3-1.9,0.8-2.7,1.4c-0.8,0.6-1.4,1.3-1.8,2.1
		c-0.5,0.9-0.7,2-0.7,3.3c0,1.3,0.2,2.3,0.7,3.2c0.5,0.9,1.1,1.5,1.9,2s1.7,0.9,2.8,1.1c1.1,0.2,2.2,0.3,3.3,0.3
		c2.8,0,5-0.5,6.5-1.4c1.5-0.9,2.7-2,3.4-3.4c0.7-1.3,1.2-2.6,1.4-3.9c0.2-1.3,0.2-2.4,0.2-3.2V192.5z"/>
	<path d="M376.9,204.9c0.6,1.1,1.5,2,2.5,2.7c1,0.7,2.2,1.2,3.5,1.5c1.3,0.3,2.7,0.5,4,0.5c1,0,2-0.1,3.2-0.4c1.1-0.2,2.1-0.6,3-1.1
		c0.9-0.5,1.6-1.2,2.2-2c0.6-0.8,0.9-1.9,0.9-3.2c0-2.1-1.4-3.7-4.2-4.8c-2.8-1.1-6.8-2.1-11.8-3.2c-2.1-0.5-4.1-1-6-1.6
		c-2-0.6-3.7-1.5-5.2-2.5c-1.5-1-2.8-2.3-3.7-3.9c-0.9-1.6-1.4-3.5-1.4-5.8c0-3.3,0.7-6.1,2-8.2c1.3-2.1,3-3.8,5.2-5
		c2.1-1.2,4.5-2.1,7.2-2.6c2.7-0.5,5.4-0.8,8.2-0.8c2.8,0,5.5,0.3,8.2,0.8c2.6,0.5,5,1.4,7,2.7c2.1,1.3,3.8,3,5.2,5.1
		c1.4,2.1,2.2,4.8,2.5,7.9h-13.5c-0.2-2.7-1.2-4.6-3.1-5.5c-1.9-1-4.1-1.5-6.6-1.5c-0.8,0-1.7,0.1-2.6,0.1c-0.9,0.1-1.8,0.3-2.5,0.7
		c-0.8,0.3-1.4,0.8-2,1.4c-0.5,0.6-0.8,1.5-0.8,2.6c0,1.3,0.5,2.3,1.4,3.1c0.9,0.8,2.1,1.5,3.6,2s3.2,1,5.2,1.4
		c1.9,0.4,3.9,0.8,5.9,1.3c2.1,0.5,4.1,1,6,1.7c2,0.7,3.7,1.5,5.2,2.6c1.5,1.1,2.8,2.5,3.7,4.1c0.9,1.6,1.4,3.6,1.4,6
		c0,3.4-0.7,6.2-2,8.6c-1.4,2.3-3.2,4.1-5.3,5.5c-2.2,1.4-4.7,2.4-7.6,3c-2.8,0.6-5.7,0.8-8.6,0.8c-3,0-5.9-0.3-8.8-0.9
		c-2.9-0.6-5.4-1.6-7.7-3c-2.2-1.4-4.1-3.2-5.5-5.5c-1.4-2.3-2.2-5.2-2.3-8.6H376C376,202.5,376.3,203.8,376.9,204.9z"/>
	<path d="M430,205.4c2.1,2.1,5.2,3.1,9.2,3.1c2.9,0,5.3-0.7,7.4-2.2c2.1-1.4,3.3-2.9,3.8-4.5h12.5c-2,6.2-5.1,10.6-9.2,13.3
		c-4.1,2.7-9.1,4-15,4c-4.1,0-7.7-0.6-11-1.9c-3.3-1.3-6-3.1-8.3-5.6c-2.3-2.4-4-5.3-5.2-8.6c-1.2-3.3-1.9-7-1.9-11
		c0-3.9,0.6-7.5,1.9-10.8c1.3-3.3,3.1-6.2,5.4-8.6c2.3-2.4,5.1-4.4,8.3-5.8c3.2-1.4,6.8-2.1,10.8-2.1c4.4,0,8.2,0.9,11.5,2.6
		c3.3,1.7,6,4,8.1,6.8c2.1,2.9,3.6,6.1,4.5,9.8c0.9,3.7,1.3,7.5,1,11.5h-37.3C426.7,200,427.8,203.3,430,205.4z M446,178.1
		c-1.7-1.9-4.3-2.8-7.8-2.8c-2.3,0-4.1,0.4-5.6,1.1c-1.5,0.8-2.7,1.7-3.6,2.9c-0.9,1.1-1.5,2.3-1.9,3.6c-0.4,1.3-0.6,2.4-0.7,3.4
		h23.1C448.9,182.8,447.7,180,446,178.1z"/>
	<path d="M330.9,224.4v71.4h-15.7v-71.4H330.9z"/>
	<path d="M369.6,224.4c4.6,0,8.9,0.7,12.8,2.2c4,1.5,7.4,3.7,10.3,6.6c2.9,2.9,5.2,6.6,6.8,11c1.6,4.4,2.5,9.6,2.5,15.5
		c0,5.2-0.7,10-2,14.4c-1.3,4.4-3.3,8.2-6.1,11.4c-2.7,3.2-6.1,5.7-10.1,7.5c-4,1.8-8.8,2.8-14.2,2.8h-30.8v-71.4H369.6z
		 M368.5,282.5c2.3,0,4.5-0.4,6.6-1.1c2.1-0.7,4-2,5.7-3.7c1.7-1.7,3-3.9,4-6.6c1-2.7,1.5-6.1,1.5-10c0-3.6-0.4-6.9-1-9.8
		c-0.7-2.9-1.8-5.4-3.5-7.5c-1.6-2.1-3.7-3.7-6.4-4.8c-2.6-1.1-5.9-1.7-9.8-1.7h-11.2v45H368.5z"/>
	<path d="M401.5,224.4h18.2l14,22.8l14.5-22.8h17.2l-22.9,34.1l24.9,37.3h-18.7L433.1,271l-15.9,24.7h-17.6l24.9-37.4L401.5,224.4z"
		/>
</g>
<g>
</g>
<g>
</g>
<g>
</g>
<g>
</g>
<g>
</g>
<g>
</g>
<g>
</g>
<g>
</g>
<g>
</g>
<g>
</g>
<g>
</g>
<g>
</g>
<g>
</g>
<g>
</g>
<g>
</g>
</svg>
